<?xml version="1.0" encoding="utf-8"?>
<!-- Generator: Adobe Illustrator 22.1.0, SVG Export Plug-In . SVG Version: 6.00 Build 0)  -->
<svg version="1.1" id="Layer_1" xmlns="http://www.w3.org/2000/svg" xmlns:xlink="http://www.w3.org/1999/xlink" x="0px" y="0px"
	 viewBox="0 0 449.1 43.7" style="enable-background:new 0 0 449.1 43.7;" xml:space="preserve">
<style type="text/css">
	.st0{fill:#C12036;}
	.st1{fill:url(#SVGID_1_);}
	.st2{fill:#529CC6;}
	.st3{fill:#529CC6;stroke:#529CC6;stroke-width:0.22;}
	.st4{fill:#529CC6;stroke:#529CC6;stroke-width:0.2;}
	.st5{fill:url(#SVGID_2_);}
</style>
<g>
	<path class="st0" d="M5.5,13.5l8.9,23.9c0.1,0.4,0.4,0.7,0.6,0.9c0.3,0.2,0.6,0.3,1,0.3c0.4,0,0.8-0.2,1.1-0.5
		c0.3-0.3,0.4-0.7,0.4-1.2V19.4c0-1.9,0.5-3.5,1.6-4.7c1.1-1.2,2.7-1.8,4.9-1.8c2,0,3.5,0.5,4.6,1.5c1.1,1,1.9,2.3,2.5,4l7.2,19
		c0.3,0.8,0.8,1.2,1.6,1.2c0.4,0,0.8-0.2,1.1-0.5c0.3-0.3,0.4-0.7,0.4-1.2V13.5h5.2v23.7c0,2-0.5,3.5-1.6,4.7s-2.8,1.8-5,1.8
		c-2,0-3.5-0.5-4.6-1.5c-1-1-1.9-2.3-2.4-4l-7.2-19c-0.1-0.4-0.4-0.7-0.6-0.9c-0.3-0.2-0.6-0.4-1-0.4c-0.4,0-0.8,0.2-1.1,0.5
		c-0.3,0.3-0.4,0.7-0.4,1.3v17.5c0,2-0.5,3.5-1.6,4.7s-2.8,1.8-5,1.8c-2,0-3.5-0.5-4.6-1.5c-1-1-1.9-2.3-2.4-4L0,13.5H5.5z"/>
	<path class="st0" d="M77.7,13.5v5.2H62.8c-1.6,0-2.7,0.3-3.4,1c-0.7,0.7-1.1,1.6-1.1,2.7c0,2.3,1.5,3.5,4.5,3.5h14.6v4.7H62.7
		c-3,0-4.5,1.2-4.5,3.6c0,1.2,0.4,2.1,1.1,2.8c0.7,0.7,1.9,1,3.4,1h15v5.2h-15c-1.8,0-3.3-0.2-4.5-0.6c-1.2-0.4-2.3-1-3.1-1.7
		c-0.8-0.7-1.4-1.6-1.8-2.6c-0.4-1-0.6-2.1-0.6-3.2c0-1.7,0.4-3.1,1.1-4.2c0.7-1.1,1.8-2,3.2-2.6c-2.8-1.1-4.2-3.4-4.2-6.7
		c0-1.2,0.2-2.3,0.6-3.3c0.4-1,1-1.9,1.8-2.6c0.8-0.7,1.8-1.3,3.1-1.7c1.2-0.4,2.8-0.6,4.5-0.6H77.7z"/>
	<path class="st0" d="M87.4,43.2h-5.7l10.4-26.4c0.6-1.4,1.3-2.4,2.4-3c1-0.6,2.3-0.9,3.9-0.9c1.6,0,2.8,0.3,3.8,0.9
		c1,0.6,1.8,1.6,2.3,3l10,26.4h-5.8l-9-23.9c-0.3-0.7-0.7-1-1.5-1c-0.7,0-1.2,0.3-1.5,1L87.4,43.2z"/>
	<path class="st0" d="M136.1,13.5v5.2h-8.7v24.5h-5.2V18.7h-8.7v-5.2H136.1z"/>
	<path class="st0" d="M146.2,13.5v12.1h15.2V13.5h5.2v29.7h-5.2V30.8h-15.2v12.4H141V13.5H146.2z"/>
	<path class="st0" d="M197.5,13.5v5.2h-14.9c-1.6,0-2.7,0.3-3.4,1c-0.7,0.7-1.1,1.6-1.1,2.7c0,2.3,1.5,3.5,4.5,3.5h14.6v4.7h-14.7
		c-3,0-4.5,1.2-4.5,3.6c0,1.2,0.4,2.1,1.1,2.8c0.7,0.7,1.9,1,3.4,1h15v5.2h-15c-1.8,0-3.3-0.2-4.5-0.6c-1.2-0.4-2.3-1-3.1-1.7
		c-0.8-0.7-1.4-1.6-1.8-2.6c-0.4-1-0.6-2.1-0.6-3.2c0-1.7,0.4-3.1,1.1-4.2c0.7-1.1,1.8-2,3.2-2.6c-2.8-1.1-4.2-3.4-4.2-6.7
		c0-1.2,0.2-2.3,0.6-3.3c0.4-1,1-1.9,1.8-2.6c0.8-0.7,1.8-1.3,3.1-1.7c1.2-0.4,2.8-0.6,4.5-0.6H197.5z"/>
	<path class="st0" d="M220.3,13.5c1.7,0,3.1,0.2,4.3,0.7c1.2,0.5,2.2,1.1,3,1.9c0.8,0.8,1.3,1.8,1.7,2.8c0.4,1.1,0.5,2.2,0.5,3.4
		c0,0.9-0.1,1.9-0.4,2.8c-0.2,0.9-0.6,1.8-1.1,2.6c-0.5,0.8-1.1,1.5-1.9,2.1c-0.8,0.6-1.8,1.1-2.9,1.4l6.9,11.9h-5.8l-6.8-11.5h-7.7
		c-0.5,0-0.7,0.2-0.7,0.7v10.7h-5.2V31.4c0-1.7,0.4-2.9,1.1-3.6c0.7-0.7,1.9-1.1,3.6-1.1h11.6c0.7,0,1.4-0.1,1.9-0.4
		c0.5-0.2,1-0.5,1.3-0.9c0.3-0.4,0.6-0.8,0.7-1.3c0.2-0.5,0.2-1,0.2-1.5c0-1.1-0.3-2-1-2.8c-0.7-0.8-1.7-1.2-3.1-1.2h-16.3v-5.2
		H220.3z"/>
	<linearGradient id="SVGID_1_" gradientUnits="userSpaceOnUse" x1="233.3306" y1="29.249" x2="249.0386" y2="29.249">
		<stop  offset="0" style="stop-color:#C02035"/>
		<stop  offset="0.9576" style="stop-color:#B2494E"/>
		<stop  offset="1" style="stop-color:#B14A4F"/>
	</linearGradient>
	<path class="st1" d="M249,27v4.5h-15.7V27H249z"/>
	<path class="st2" d="M254.5,13.5l8.9,23.9c0.1,0.4,0.4,0.7,0.6,0.9c0.3,0.2,0.6,0.3,1,0.3c0.4,0,0.8-0.2,1.1-0.5
		c0.3-0.3,0.4-0.7,0.4-1.2V19.4c0-1.9,0.5-3.5,1.6-4.7c1.1-1.2,2.7-1.8,4.9-1.8c2,0,3.5,0.5,4.6,1.5c1.1,1,1.9,2.3,2.5,4l7.2,19
		c0.3,0.8,0.8,1.2,1.6,1.2c0.4,0,0.8-0.2,1.1-0.5c0.3-0.3,0.4-0.7,0.4-1.2V13.5h5.2v23.7c0,2-0.5,3.5-1.6,4.7s-2.8,1.8-5,1.8
		c-2,0-3.5-0.5-4.6-1.5c-1-1-1.9-2.3-2.4-4l-7.2-19c-0.1-0.4-0.4-0.7-0.6-0.9c-0.3-0.2-0.6-0.4-1-0.4c-0.4,0-0.8,0.2-1.1,0.5
		c-0.3,0.3-0.4,0.7-0.4,1.3v17.5c0,2-0.5,3.5-1.6,4.7s-2.8,1.8-5,1.8c-2,0-3.5-0.5-4.6-1.5c-1-1-1.9-2.3-2.4-4L249,13.5H254.5z"/>
	<path class="st2" d="M304,43.2h-5.7l10.4-26.4c0.6-1.4,1.3-2.4,2.4-3c1-0.6,2.3-0.9,3.9-0.9c1.6,0,2.8,0.3,3.8,0.9
		c1,0.6,1.8,1.6,2.3,3l10,26.4h-5.8l-9-23.9c-0.3-0.7-0.7-1-1.5-1c-0.7,0-1.2,0.3-1.5,1L304,43.2z"/>
	<path class="st2" d="M338.6,13.5v19.4c0,0.7,0.1,1.4,0.3,2c0.2,0.6,0.5,1.2,1,1.6c0.5,0.5,1.1,0.8,1.9,1.1c0.8,0.3,1.8,0.4,2.9,0.4
		h11.5v5.2h-11.8c-2,0-3.6-0.3-5-0.8c-1.4-0.5-2.5-1.2-3.4-2.1s-1.5-2-1.9-3.2c-0.4-1.2-0.6-2.6-0.6-4.1V13.5H338.6z"/>
	<path class="st2" d="M366.3,13.5v12.6h2.9c1.3,0,2.3,0,3.1-0.1c0.8-0.1,1.5-0.2,2-0.5c0.5-0.3,1-0.6,1.3-1.1c0.4-0.5,0.8-1.1,1.2-2
		l4.5-8.9h5.6l-4.7,9.2c-0.7,1.3-1.4,2.4-2.2,3.3c-0.8,0.9-1.8,1.6-3,2.1c0.7,0.2,1.3,0.4,1.8,0.7c0.5,0.3,1,0.7,1.5,1.1
		c0.5,0.5,0.9,1,1.3,1.6c0.4,0.6,0.8,1.4,1.3,2.2l4.8,9.3H382l-4.5-8.8c-0.4-0.8-0.8-1.4-1.2-1.9c-0.4-0.5-0.9-0.8-1.5-1.1
		c-0.6-0.3-1.3-0.4-2.2-0.5c-0.9-0.1-2-0.1-3.4-0.1h-2.9v12.4h-5.2V13.5H366.3z"/>
	<path class="st2" d="M416,13.5v5.2h-14.9c-1.6,0-2.7,0.3-3.4,1c-0.7,0.7-1.1,1.6-1.1,2.7c0,2.3,1.5,3.5,4.5,3.5h14.6v4.7H401
		c-3,0-4.5,1.2-4.5,3.6c0,1.2,0.4,2.1,1.1,2.8c0.7,0.7,1.9,1,3.4,1h15v5.2h-15c-1.8,0-3.3-0.2-4.5-0.6c-1.2-0.4-2.3-1-3.1-1.7
		c-0.8-0.7-1.4-1.6-1.8-2.6c-0.4-1-0.6-2.1-0.6-3.2c0-1.7,0.4-3.1,1.1-4.2c0.7-1.1,1.8-2,3.2-2.6c-2.8-1.1-4.2-3.4-4.2-6.7
		c0-1.2,0.2-2.3,0.6-3.3c0.4-1,1-1.9,1.8-2.6c0.8-0.7,1.8-1.3,3.1-1.7c1.2-0.4,2.8-0.6,4.5-0.6H416z"/>
	<path class="st3" d="M443.8,7.8c0.8,0.7,1.7,1.7,2.6,3.1c2.8,4.8,2,11.4,2,11.5l0,0c0,0.9-0.1,1.9-0.4,2.8
		c-0.2,0.9-0.6,1.8-1.1,2.6c-0.5,0.8-1.1,1.5-1.9,2.1c-0.8,0.6-1.8,1.1-2.9,1.4l6.9,11.9h-5.8l-6.8-11.5h-7.7
		c-0.5,0-0.7,0.2-0.7,0.7v10.7h-5.2V31.4c0-1.7,0.4-2.9,1.1-3.6c0.7-0.7,1.9-1.1,3.6-1.1h11.6c0.7,0,1.4-0.1,1.9-0.4
		c0.5-0.2,1-0.5,1.3-0.9c0.4-0.4,0.6-0.9,0.7-1.3c0.5-1.5,0.6-3.1,0.5-4.2c0-0.9-0.1-1.9-0.4-3.2c-0.4-1.5-0.8-2.8-1.9-4"/>
</g>
<path class="st4" d="M403.4,4.9c3.8,0.1,6.9,0,8.9,0c0,0,10.8-0.1,15.7,1c0.6,0.1,1.2,0.3,1.2,0.3c0.7,0.2,1.2,0.4,1.6,0.5
	c0.2,0.1,2.1,0.8,3,1.2c3.3,1.5,6,3.7,7.2,4.8c0.9-1.6,1.8-3.2,2.8-4.9c-0.3-0.3-0.7-0.6-1.2-0.9c0,0-0.1-0.1-0.2-0.1
	c0,0-0.2-0.1-0.4-0.3c-3.6-2.3-6.5-3.4-6.5-3.4c-2.4-1-4.3-1.4-5.5-1.7c-3.1-0.7-5.6-0.9-7.4-1c-7.8-0.5-17.1-0.3-19.3-0.2"/>
<linearGradient id="SVGID_2_" gradientUnits="userSpaceOnUse" x1="0" y1="2.5128" x2="403.358" y2="2.5128">
	<stop  offset="0" style="stop-color:#B14A4F"/>
	<stop  offset="0.2363" style="stop-color:#9C6A71"/>
	<stop  offset="0.594" style="stop-color:#708EAB"/>
	<stop  offset="0.7606" style="stop-color:#519CC7"/>
</linearGradient>
<path class="st5" d="M403.4,5C269.6,5,135.7,5,1.9,5C1.3,3.3,0.6,1.7,0,0.1h403.4V5z"/>
</svg>
