<?xml version="1.0" encoding="utf-8"?>
<!-- Generator: Adobe Illustrator 22.1.0, SVG Export Plug-In . SVG Version: 6.00 Build 0)  -->
<svg version="1.1" id="Layer_1" xmlns="http://www.w3.org/2000/svg" xmlns:xlink="http://www.w3.org/1999/xlink" x="0px" y="0px"
	 viewBox="0 0 311 30.3" style="enable-background:new 0 0 311 30.3;" xml:space="preserve">
<style type="text/css">
	.st0{fill:#C12036;}
	.st1{fill:url(#SVGID_1_);}
	.st2{fill:#529CC6;}
	.st3{fill:#529CC6;stroke:#529CC6;stroke-width:0.19;}
	.st4{fill:#529CC6;stroke:#529CC6;stroke-width:0.23;}
	.st5{fill:url(#SVGID_2_);}
</style>
<title>weather-walker-logo</title>
<path class="st0" d="M3.8,9.3L10,25.9c0.1,0.2,0.2,0.5,0.4,0.6c0.2,0.2,0.4,0.2,0.7,0.2c0.3,0,0.6-0.1,0.8-0.3
	c0.2-0.2,0.3-0.5,0.3-0.8V13.5c-0.1-1.2,0.3-2.4,1.1-3.2c0.9-0.9,2.2-1.3,3.4-1.2c1.1-0.1,2.3,0.3,3.2,1c0.8,0.8,1.4,1.7,1.7,2.8
	l5,13.2c0.1,0.5,0.6,0.8,1.1,0.8c0.3,0,0.6-0.1,0.7-0.3c0.2-0.2,0.3-0.5,0.3-0.8V9.3h3.6v16.4c0.1,1.2-0.3,2.4-1.1,3.3
	c-0.9,0.9-2.2,1.3-3.4,1.2c-1.1,0.1-2.3-0.3-3.2-1c-0.8-0.8-1.4-1.7-1.7-2.8l-5-13.1c-0.1-0.2-0.2-0.5-0.4-0.6
	c-0.2-0.2-0.4-0.2-0.7-0.2c-0.3,0-0.6,0.1-0.7,0.3c-0.2,0.2-0.3,0.6-0.3,0.9v12.1c0.1,1.2-0.3,2.4-1.1,3.3c-0.9,0.9-2.2,1.3-3.4,1.2
	c-1.1,0.1-2.3-0.3-3.2-1c-0.8-0.8-1.4-1.7-1.7-2.8L0,9.3H3.8z"/>
<path class="st0" d="M53.8,9.3v3.6H43.5c-0.9-0.1-1.7,0.2-2.4,0.7c-0.5,0.5-0.8,1.2-0.7,1.9c0,1.7,1,2.5,3.1,2.5h10.1v3.3H43.4
	c-2.1,0-3.1,0.8-3.1,2.5c0,0.7,0.2,1.4,0.8,1.9c0.7,0.5,1.5,0.8,2.3,0.7h10.4v3.6H43.4c-1.1,0-2.1-0.1-3.1-0.4
	c-0.8-0.2-1.5-0.6-2.1-1.2c-0.6-0.5-1-1.1-1.2-1.8c-0.3-0.7-0.4-1.5-0.4-2.2c0-1,0.2-2.1,0.8-2.9c0.5-0.8,1.3-1.4,2.2-1.8
	c-1.9-0.8-2.9-2.3-2.9-4.6c0-0.8,0.1-1.5,0.4-2.3c0.3-0.7,0.7-1.3,1.2-1.8c0.6-0.5,1.3-0.9,2.1-1.2c1-0.3,2.1-0.4,3.1-0.4H53.8z"/>
<path class="st0" d="M60.5,29.9h-4l7.2-18.3c0.3-0.9,0.9-1.6,1.6-2.1C66.2,9.1,67.2,9,68.1,9c0.9,0,1.8,0.2,2.7,0.6
	c0.8,0.5,1.3,1.2,1.6,2.1L79.3,30h-4l-6.2-16.5c-0.1-0.4-0.6-0.7-1-0.7c-0.5,0-0.9,0.3-1,0.7L60.5,29.9z"/>
<path class="st0" d="M94.2,9.3v3.6h-6v17h-3.6v-17h-6V9.3H94.2z"/>
<path class="st0" d="M101.2,9.3v8.4h10.5V9.3h3.6v20.6h-3.6v-8.6h-10.5v8.6h-3.6V9.3H101.2z"/>
<path class="st0" d="M136.7,9.3v3.6h-10.3c-0.9-0.1-1.7,0.2-2.4,0.7c-0.5,0.5-0.8,1.2-0.7,1.9c0,1.6,1,2.4,3.1,2.4h10.1v3.3h-10.2
	c-2.1,0-3.1,0.8-3.1,2.5c0,0.7,0.2,1.4,0.8,1.9c0.7,0.5,1.5,0.8,2.3,0.7h10.4v3.6h-10.4c-1.1,0-2.1-0.1-3.1-0.4
	c-0.8-0.2-1.5-0.6-2.1-1.2c-0.6-0.5-1-1.1-1.2-1.8c-0.3-0.7-0.4-1.5-0.4-2.2c0-1,0.2-2.1,0.8-2.9c0.5-0.8,1.3-1.4,2.2-1.8
	c-1.9-0.8-2.9-2.3-2.9-4.6c0-0.8,0.1-1.5,0.4-2.3c0.3-0.7,0.7-1.3,1.2-1.8c0.6-0.5,1.3-0.9,2.1-1.2c1-0.3,2.1-0.4,3.1-0.4H136.7z"/>
<path class="st0" d="M152.5,9.3c1,0,2,0.1,3,0.5c0.8,0.3,1.5,0.8,2.1,1.3c0.5,0.6,0.9,1.2,1.2,2c0.3,0.8,0.4,1.5,0.4,2.3
	c0,0.7-0.1,1.3-0.2,1.9c-0.2,0.6-0.4,1.2-0.8,1.8c-0.4,0.6-0.8,1.1-1.3,1.5c-0.6,0.5-1.3,0.8-2,1l4.8,8.2h-4l-4.7-8h-5.4
	c-0.3,0-0.5,0.1-0.5,0.4c0,0,0,0.1,0,0.1v7.4h-3.6v-8.1c-0.1-0.9,0.2-1.8,0.8-2.5c0.7-0.6,1.6-0.8,2.5-0.8h8c0.4,0,0.9-0.1,1.3-0.2
	c0.3-0.1,0.6-0.4,0.9-0.6c0.2-0.3,0.4-0.6,0.5-0.9c0.1-0.3,0.2-0.7,0.2-1.1c0-0.7-0.2-1.4-0.7-1.9c-0.6-0.6-1.4-0.9-2.2-0.8h-11.3
	V9.3H152.5z"/>
<linearGradient id="SVGID_1_" gradientUnits="userSpaceOnUse" x1="161.5715" y1="-1.1504" x2="172.45" y2="-1.1504" gradientTransform="matrix(1 0 0 -1 0 19.0972)">
	<stop  offset="0" style="stop-color:#C02035"/>
	<stop  offset="0.95" style="stop-color:#B2484D"/>
	<stop  offset="1" style="stop-color:#B14A4F"/>
</linearGradient>
<path class="st1" d="M172.4,18.7v3.1h-10.9v-3.1H172.4z"/>
<path class="st2" d="M176.2,9.3l6.2,16.6c0.1,0.2,0.2,0.5,0.4,0.6c0.2,0.2,0.4,0.2,0.7,0.2c0.3,0,0.6-0.1,0.8-0.3
	c0.2-0.2,0.3-0.5,0.3-0.8V13.5c-0.1-1.2,0.3-2.4,1.1-3.2c0.9-0.9,2.2-1.3,3.4-1.2c1.1-0.1,2.3,0.3,3.2,1c0.8,0.8,1.4,1.7,1.7,2.8
	l5,13.2c0.1,0.5,0.6,0.8,1.1,0.8c0.3,0,0.6-0.1,0.7-0.3c0.2-0.2,0.3-0.5,0.3-0.8V9.3h3.6v16.4c0.1,1.2-0.3,2.4-1.1,3.3
	c-1.9,1.6-4.6,1.6-6.6,0.2c-0.8-0.8-1.4-1.7-1.7-2.8l-5-13.2c-0.1-0.2-0.2-0.5-0.4-0.6c-0.2-0.2-0.4-0.2-0.7-0.2
	c-0.3,0-0.6,0.1-0.7,0.3c-0.2,0.2-0.3,0.6-0.3,0.9v12.1c0.1,1.2-0.3,2.4-1.1,3.3c-1.9,1.6-4.6,1.6-6.6,0.2c-0.8-0.8-1.4-1.7-1.7-2.8
	l-6.4-17.1H176.2z"/>
<path class="st2" d="M210.5,29.9h-4l7.2-18.3c0.3-0.9,0.9-1.6,1.6-2.1c0.8-0.4,1.8-0.6,2.7-0.6c0.9,0,1.8,0.2,2.7,0.6
	c0.8,0.5,1.3,1.2,1.6,2.1l6.9,18.3h-4l-6.2-16.5c-0.1-0.4-0.6-0.7-1-0.7c-0.5,0-0.9,0.3-1,0.7L210.5,29.9z"/>
<path class="st2" d="M234.5,9.3v13.4c0,0.5,0.1,0.9,0.2,1.4c0.1,0.4,0.4,0.8,0.7,1.1c0.4,0.3,0.8,0.6,1.3,0.7c0.7,0.2,1.3,0.3,2,0.3
	h8v3.6h-8.2c-1.2,0-2.3-0.2-3.5-0.5c-0.9-0.3-1.7-0.8-2.4-1.5c-0.6-0.6-1.1-1.4-1.4-2.2c-0.3-0.9-0.4-1.9-0.4-2.8V9.3H234.5z"/>
<path class="st2" d="M253.6,9.3v8.7h2c0.9,0,1.6,0,2.1-0.1c0.5,0,0.9-0.1,1.4-0.3c0.4-0.2,0.7-0.5,0.9-0.8c0.3-0.4,0.6-0.9,0.8-1.4
	l3.1-6.1h3.9l-3.2,6.4c-0.4,0.8-0.9,1.6-1.5,2.3c-0.6,0.6-1.3,1.1-2.1,1.5c0.9,0.2,1.7,0.7,2.3,1.3c0.3,0.3,0.6,0.7,0.9,1.1
	c0.3,0.4,0.6,0.9,0.9,1.5l3.3,6.5h-4l-3.1-6.1c-0.2-0.5-0.5-0.9-0.8-1.3c-0.3-0.3-0.6-0.6-1-0.8c-0.5-0.2-1-0.3-1.5-0.4
	c-0.6,0-1.4-0.1-2.4-0.1h-2v8.6h-3.6V9.3H253.6z"/>
<path class="st2" d="M288.1,9.3v3.6h-10.3c-0.9-0.1-1.7,0.2-2.4,0.7c-0.5,0.5-0.8,1.2-0.7,1.9c0,1.6,1,2.4,3.1,2.4h10.1v3.3h-10.2
	c-2.1,0-3.1,0.8-3.1,2.5c0,0.7,0.2,1.4,0.8,1.9c0.7,0.5,1.5,0.8,2.4,0.7h10.4v3.6h-10.4c-1.1,0-2.1-0.1-3.1-0.4
	c-0.8-0.2-1.5-0.6-2.1-1.2c-0.5-0.5-1-1.1-1.2-1.8c-0.3-0.7-0.4-1.5-0.4-2.2c0-1,0.2-2.1,0.8-2.9c0.5-0.8,1.3-1.4,2.2-1.8
	c-1.9-0.8-2.9-2.3-2.9-4.6c0-0.8,0.1-1.5,0.4-2.3c0.3-0.7,0.7-1.3,1.2-1.8c0.6-0.5,1.3-0.9,2.1-1.2c1-0.3,2.1-0.4,3.1-0.4L288.1,9.3
	z"/>
<path class="st3" d="M307.3,5.4c0.7,0.6,1.3,1.3,1.8,2.1c1.9,3.3,1.4,7.9,1.4,7.9c0,0.7-0.1,1.3-0.2,1.9c-0.2,0.6-0.4,1.2-0.8,1.8
	c-0.4,0.6-0.8,1.1-1.3,1.5c-0.6,0.5-1.3,0.8-2.1,1l4.8,8.2h-4l-4.7-8h-5.4c-0.2,0-0.5,0.1-0.5,0.4c0,0,0,0.1,0,0.1v7.4h-3.6v-8.1
	c-0.1-0.9,0.2-1.8,0.8-2.5c0.7-0.6,1.6-0.8,2.5-0.8h8c0.4,0,0.9-0.1,1.3-0.2c0.3-0.1,0.6-0.4,0.9-0.6c0.2-0.3,0.4-0.6,0.5-0.9
	c0.3-0.9,0.4-1.9,0.4-2.9c-0.1-1.1-0.2-1.9-0.3-2.2c-0.1-0.3-0.2-0.6-0.3-1.1c-0.3-0.8-0.7-1.4-1-1.7"/>
<path class="st4" d="M279.2,3.4c2,0,3.6,0,4.9,0c0.4,0,1.9,0,3.5,0.1c0.5,0,1.1,0,1.8,0.1c0.7,0.1,1.2,0.1,1.6,0.1
	c0.4,0,1.3,0.1,2.4,0.3c1.1,0.2,2.4,0.4,4,0.7c1.1,0.2,2,0.5,2.7,0.8c1,0.4,1.8,0.8,2.3,1.1c0.5,0.3,0.8,0.5,1.3,0.7
	c0.8,0.5,1.4,1,1.7,1.4c0.6-1.1,1.3-2.2,1.9-3.4c-0.3-0.2-0.5-0.5-0.8-0.7l-0.1-0.1l-0.3-0.2c-1.5-0.9-3-1.7-4.6-2.4
	c-1.2-0.5-2.5-0.9-3.8-1.2c-2.2-0.5-3.9-0.6-5.2-0.7c-1.9-0.1-6.8-0.2-13.4-0.2"/>
<linearGradient id="SVGID_2_" gradientUnits="userSpaceOnUse" x1="0" y1="17.3417" x2="279.3103" y2="17.3417" gradientTransform="matrix(1 0 0 -1 0 19.0972)">
	<stop  offset="0" style="stop-color:#B14A4F"/>
	<stop  offset="0.12" style="stop-color:#A15864"/>
	<stop  offset="0.56" style="stop-color:#6789AB"/>
	<stop  offset="0.76" style="stop-color:#519CC7"/>
</linearGradient>
<path class="st5" d="M279.3,3.5H1.3C0.9,2.3,0.5,1.2,0,0h279.3V3.5z"/>
</svg>
