<svg id="Layer_1" data-name="Layer 1" xmlns="http://www.w3.org/2000/svg" xmlns:xlink="http://www.w3.org/1999/xlink" viewBox="0 0 449.12 43.72"><defs><style>.cls-1{fill:#c12036;}.cls-2{fill:url(#linear-gradient);}.cls-3,.cls-4,.cls-5{fill:#529cc6;}.cls-4,.cls-5{stroke:#529cc6;}.cls-4{stroke-width:0.22px;}.cls-5{stroke-width:0.2px;}.cls-6{fill:url(#linear-gradient-2);}</style><linearGradient id="linear-gradient" x1="233.33" y1="29.25" x2="249.04" y2="29.25" gradientUnits="userSpaceOnUse"><stop offset="0" stop-color="#c02035"/><stop offset="0.95" stop-color="#b2484d"/><stop offset="1" stop-color="#b14a4f"/></linearGradient><linearGradient id="linear-gradient-2" y1="2.51" x2="403.36" y2="2.51" gradientUnits="userSpaceOnUse"><stop offset="0" stop-color="#b14a4f"/><stop offset="0.12" stop-color="#a15864"/><stop offset="0.56" stop-color="#6789ab"/><stop offset="0.76" stop-color="#519cc7"/></linearGradient></defs><title>weather-walker-logo</title><path class="cls-1" d="M5.54,13.5l8.89,23.93a2.23,2.23,0,0,0,.62.91,1.57,1.57,0,0,0,1,.32,1.44,1.44,0,0,0,1.1-.46A1.68,1.68,0,0,0,17.6,37V19.44a6.66,6.66,0,0,1,1.63-4.69A6.34,6.34,0,0,1,24.16,13a6.47,6.47,0,0,1,4.57,1.47,9.76,9.76,0,0,1,2.47,4l7.21,19A1.64,1.64,0,0,0,40,38.66a1.39,1.39,0,0,0,1.08-.46A1.71,1.71,0,0,0,41.54,37V13.5h5.23V37.21a6.66,6.66,0,0,1-1.65,4.73,6.42,6.42,0,0,1-4.95,1.78,6.4,6.4,0,0,1-4.55-1.47,9.7,9.7,0,0,1-2.44-4L26,19.26a2.21,2.21,0,0,0-.64-.92,1.52,1.52,0,0,0-1-.35,1.39,1.39,0,0,0-1.08.46,1.78,1.78,0,0,0-.42,1.25V37.21a6.66,6.66,0,0,1-1.65,4.73,6.42,6.42,0,0,1-4.95,1.78,6.4,6.4,0,0,1-4.55-1.47,9.7,9.7,0,0,1-2.44-4L0,13.5Z"/><path class="cls-1" d="M77.66,13.5v5.19H62.79a4.85,4.85,0,0,0-3.43,1,3.59,3.59,0,0,0-1.06,2.73Q58.3,26,62.83,26H77.44v4.71H62.7q-4.53,0-4.53,3.6A3.46,3.46,0,0,0,59.27,37a4.89,4.89,0,0,0,3.39,1h15V43.2h-15a14.49,14.49,0,0,1-4.51-.62,8.5,8.5,0,0,1-3.08-1.69,6.24,6.24,0,0,1-1.76-2.58,9.13,9.13,0,0,1-.55-3.21,7.55,7.55,0,0,1,1.1-4.24A6.89,6.89,0,0,1,57,28.28c-2.78-1.14-4.18-3.37-4.18-6.69a8.82,8.82,0,0,1,.58-3.25,6.48,6.48,0,0,1,1.78-2.58,8.32,8.32,0,0,1,3.08-1.67,15.18,15.18,0,0,1,4.51-.59Z"/><path class="cls-1" d="M87.38,43.2H81.66L92.09,16.8a5.57,5.57,0,0,1,2.36-3A7.86,7.86,0,0,1,98.34,13a7.78,7.78,0,0,1,3.85.86,5.42,5.42,0,0,1,2.31,3l10,26.4h-5.76l-9-23.9a1.46,1.46,0,0,0-1.45-1,1.53,1.53,0,0,0-1.5,1Z"/><path class="cls-1" d="M136.09,13.5v5.19h-8.67V43.2h-5.23V18.69h-8.67V13.5Z"/><path class="cls-1" d="M146.17,13.5V25.6h15.18V13.5h5.23V43.2h-5.23V30.79H146.17V43.2H141V13.5Z"/><path class="cls-1" d="M197.47,13.5v5.19H182.6a4.86,4.86,0,0,0-3.43,1,3.59,3.59,0,0,0-1.06,2.73q0,3.53,4.53,3.52h14.61v4.71H182.51q-4.53,0-4.53,3.6a3.5,3.5,0,0,0,1.1,2.75,4.89,4.89,0,0,0,3.39,1h15.05V43.2H182.47a14.49,14.49,0,0,1-4.51-.62,8.5,8.5,0,0,1-3.08-1.69,6.24,6.24,0,0,1-1.76-2.58,9.13,9.13,0,0,1-.55-3.21,7.55,7.55,0,0,1,1.1-4.24,6.87,6.87,0,0,1,3.17-2.58q-4.18-1.71-4.18-6.69a9,9,0,0,1,.57-3.25A6.48,6.48,0,0,1,175,15.76a8.4,8.4,0,0,1,3.08-1.67,15.23,15.23,0,0,1,4.51-.59Z"/><path class="cls-1" d="M220.26,13.5a11.66,11.66,0,0,1,4.32.72,8.38,8.38,0,0,1,3,1.94A7.51,7.51,0,0,1,229.26,19a10.37,10.37,0,0,1,.55,3.38,11.55,11.55,0,0,1-.35,2.8,9.46,9.46,0,0,1-1.1,2.6,8.13,8.13,0,0,1-1.94,2.13,8.44,8.44,0,0,1-2.9,1.41l6.91,11.88h-5.77l-6.77-11.49h-7.75a.66.66,0,0,0-.74.75V43.2h-5.2V31.45a5,5,0,0,1,1.1-3.61,4.92,4.92,0,0,1,3.57-1.1h11.57a4.72,4.72,0,0,0,1.89-.35,3.63,3.63,0,0,0,1.28-.92,4,4,0,0,0,.72-1.32,5.07,5.07,0,0,0,.25-1.54,4.05,4.05,0,0,0-1-2.75,3.87,3.87,0,0,0-3.14-1.17H204.16V13.5Z"/><path class="cls-2" d="M249,27v4.48H233.33V27Z"/><path class="cls-3" d="M254.49,13.5l8.89,23.93a2.23,2.23,0,0,0,.62.91,1.57,1.57,0,0,0,1,.32,1.44,1.44,0,0,0,1.1-.46,1.68,1.68,0,0,0,.44-1.21V19.44a6.66,6.66,0,0,1,1.63-4.69A6.34,6.34,0,0,1,273.11,13a6.47,6.47,0,0,1,4.57,1.47,9.76,9.76,0,0,1,2.47,4l7.21,19A1.64,1.64,0,0,0,289,38.66a1.39,1.39,0,0,0,1.08-.46,1.71,1.71,0,0,0,.42-1.21V13.5h5.23V37.21a6.66,6.66,0,0,1-1.65,4.73,7.77,7.77,0,0,1-9.5.31,9.7,9.7,0,0,1-2.44-4l-7.22-19a2.21,2.21,0,0,0-.64-.92,1.52,1.52,0,0,0-1-.35,1.39,1.39,0,0,0-1.08.46,1.78,1.78,0,0,0-.42,1.25V37.21a6.66,6.66,0,0,1-1.65,4.73,7.77,7.77,0,0,1-9.5.31,9.7,9.7,0,0,1-2.44-4L249,13.5Z"/><path class="cls-3" d="M304,43.2h-5.72l10.43-26.4a5.6,5.6,0,0,1,2.35-3,7.88,7.88,0,0,1,3.9-.86,7.78,7.78,0,0,1,3.85.86,5.42,5.42,0,0,1,2.31,3l10,26.4h-5.77l-9-23.9a1.44,1.44,0,0,0-1.45-1,1.52,1.52,0,0,0-1.49,1Z"/><path class="cls-3" d="M338.62,13.5V32.9a6.86,6.86,0,0,0,.29,2,3.71,3.71,0,0,0,1,1.63,4.91,4.91,0,0,0,1.87,1.08,9.31,9.31,0,0,0,2.92.4h11.53V43.2H344.39a14.68,14.68,0,0,1-5-.77,9.08,9.08,0,0,1-3.41-2.14A8.14,8.14,0,0,1,334,37.06a13.74,13.74,0,0,1-.59-4.11V13.5Z"/><path class="cls-3" d="M366.3,13.5V26.08h2.86c1.26,0,2.29,0,3.1-.11a5.63,5.63,0,0,0,2-.5,3.74,3.74,0,0,0,1.34-1.13,11.87,11.87,0,0,0,1.17-2l4.53-8.88h5.59l-4.66,9.24a16.83,16.83,0,0,1-2.16,3.3,8.11,8.11,0,0,1-3,2.11A6.8,6.8,0,0,1,380.4,30a10.11,10.11,0,0,1,1.3,1.63c.41.63.83,1.37,1.27,2.22l4.8,9.33H382l-4.53-8.8a11,11,0,0,0-1.19-1.89,3.81,3.81,0,0,0-1.45-1.1,6.54,6.54,0,0,0-2.2-.51c-.88-.07-2-.11-3.43-.11H366.3V43.2h-5.19V13.5Z"/><path class="cls-3" d="M416,13.5v5.19H401.1a4.86,4.86,0,0,0-3.43,1,3.62,3.62,0,0,0-1.06,2.73q0,3.53,4.54,3.52h14.6v4.71H401q-4.53,0-4.53,3.6a3.5,3.5,0,0,0,1.1,2.75A4.9,4.9,0,0,0,401,38h15V43.2H401a14.53,14.53,0,0,1-4.51-.62,8.58,8.58,0,0,1-3.08-1.69,6.33,6.33,0,0,1-1.76-2.58,9.13,9.13,0,0,1-.55-3.21,7.63,7.63,0,0,1,1.1-4.24,6.87,6.87,0,0,1,3.17-2.58q-4.18-1.71-4.18-6.69a9,9,0,0,1,.57-3.25,6.58,6.58,0,0,1,1.78-2.58,8.49,8.49,0,0,1,3.08-1.67,15.23,15.23,0,0,1,4.51-.59Z"/><path class="cls-4" d="M443.78,7.82a12.16,12.16,0,0,1,2.57,3.09c2.8,4.83,2,11.41,2,11.47h0a11.08,11.08,0,0,1-.35,2.8,9.17,9.17,0,0,1-1.1,2.6,8.26,8.26,0,0,1-1.93,2.13A8.49,8.49,0,0,1,442,31.32l6.91,11.88h-5.76l-6.78-11.49h-7.74a.66.66,0,0,0-.75.75V43.2h-5.19V31.45a4.94,4.94,0,0,1,1.1-3.61,4.89,4.89,0,0,1,3.56-1.1h11.57a4.69,4.69,0,0,0,1.89-.35,3.54,3.54,0,0,0,1.28-.92,4.17,4.17,0,0,0,.73-1.32,11.83,11.83,0,0,0,.51-4.23,13.91,13.91,0,0,0-.45-3.22,8.2,8.2,0,0,0-1.88-4"/><path class="cls-5" d="M403.36,4.87c3.84.06,6.92,0,8.91,0,0,0,10.82-.11,15.71,1,.59.14,1.16.3,1.16.3.7.2,1.23.4,1.61.54.16.06,2.14.79,3,1.2A32.33,32.33,0,0,1,441,12.71q1.38-2.43,2.77-4.86a12.51,12.51,0,0,0-1.16-.94l-.19-.12L442,6.52a46.07,46.07,0,0,0-6.53-3.44A33.53,33.53,0,0,0,430,1.41a41.87,41.87,0,0,0-7.39-1C414.84,0,405.47.12,403.36.17"/><path class="cls-6" d="M403.36,5H1.94Q1,2.52,0,.07H403.36Z"/></svg>