<svg id="Layer_1" data-name="Layer 1" xmlns="http://www.w3.org/2000/svg" xmlns:xlink="http://www.w3.org/1999/xlink" viewBox="0 0 386.23 37.61"><defs><style>.cls-1{fill:#c12036;}.cls-2{fill:url(#linear-gradient);}.cls-3,.cls-4,.cls-5{fill:#529cc6;}.cls-4,.cls-5{stroke:#529cc6;}.cls-4{stroke-width:0.22px;}.cls-5{stroke-width:0.2px;}.cls-6{fill:url(#linear-gradient-2);}</style><linearGradient id="linear-gradient" x1="200.64" y1="25.17" x2="214.15" y2="25.17" gradientUnits="userSpaceOnUse"><stop offset="0" stop-color="#c02035"/><stop offset="0.95" stop-color="#b2484d"/><stop offset="1" stop-color="#b14a4f"/></linearGradient><linearGradient id="linear-gradient-2" y1="2.17" x2="346.85" y2="2.17" gradientUnits="userSpaceOnUse"><stop offset="0" stop-color="#b14a4f"/><stop offset="0.12" stop-color="#a15864"/><stop offset="0.56" stop-color="#6789ab"/><stop offset="0.76" stop-color="#519cc7"/></linearGradient></defs><title>weather-walker-logo-ff</title><path class="cls-1" d="M4.77,11.62,12.41,32.2a1.86,1.86,0,0,0,.53.78,1.32,1.32,0,0,0,.87.28,1.28,1.28,0,0,0,.95-.39,1.48,1.48,0,0,0,.37-1V16.73a5.75,5.75,0,0,1,1.4-4,5.48,5.48,0,0,1,4.24-1.53,5.6,5.6,0,0,1,3.94,1.26,8.39,8.39,0,0,1,2.12,3.47L33,32.2a1.4,1.4,0,0,0,1.4,1.06,1.21,1.21,0,0,0,.93-.39,1.52,1.52,0,0,0,.36-1V11.62h4.5V32a5.74,5.74,0,0,1-1.42,4.07,5.53,5.53,0,0,1-4.26,1.53,5.5,5.5,0,0,1-3.91-1.26,8.36,8.36,0,0,1-2.1-3.47l-6.21-16.3a1.85,1.85,0,0,0-.55-.8,1.32,1.32,0,0,0-.88-.3,1.18,1.18,0,0,0-.93.4A1.53,1.53,0,0,0,19.6,17V32a5.74,5.74,0,0,1-1.42,4.07,5.53,5.53,0,0,1-4.26,1.53A5.5,5.5,0,0,1,10,36.35a8.36,8.36,0,0,1-2.1-3.47L0,11.62Z"/><path class="cls-1" d="M66.78,11.62v4.47H54A4.18,4.18,0,0,0,51,17a3.11,3.11,0,0,0-.91,2.34q0,3,3.9,3H66.59v4.05H53.92q-3.9,0-3.9,3.1A3,3,0,0,0,51,31.84a4.23,4.23,0,0,0,2.91.85H66.82v4.47H53.88A12.59,12.59,0,0,1,50,36.63a7.41,7.41,0,0,1-2.65-1.46A5.34,5.34,0,0,1,45.84,33a7.85,7.85,0,0,1-.47-2.76,6.58,6.58,0,0,1,.94-3.65A5.94,5.94,0,0,1,49,24.33q-3.6-1.47-3.6-5.75a7.74,7.74,0,0,1,.49-2.8,5.57,5.57,0,0,1,1.54-2.21,7.11,7.11,0,0,1,2.64-1.44A13,13,0,0,1,54,11.62Z"/><path class="cls-1" d="M75.14,37.16H70.22l9-22.7a4.87,4.87,0,0,1,2-2.56,6.79,6.79,0,0,1,3.35-.73,6.68,6.68,0,0,1,3.31.73,4.69,4.69,0,0,1,2,2.56l8.63,22.7h-5L85.77,16.61a1.23,1.23,0,0,0-1.24-.87,1.31,1.31,0,0,0-1.29.87Z"/><path class="cls-1" d="M117,11.62v4.47h-7.46V37.16h-4.5V16.09H97.62V11.62Z"/><path class="cls-1" d="M125.69,11.62V22h13.05V11.62h4.51V37.16h-4.51V26.49H125.69V37.16h-4.46V11.62Z"/><path class="cls-1" d="M169.81,11.62v4.47H157a4.16,4.16,0,0,0-3,.87,3.07,3.07,0,0,0-.91,2.34q0,3,3.9,3h12.56v4.05H156.94c-2.6,0-3.89,1-3.89,3.1a3,3,0,0,0,.94,2.36,4.24,4.24,0,0,0,2.92.85h12.94v4.47H156.91a12.54,12.54,0,0,1-3.88-.53,7.25,7.25,0,0,1-2.65-1.46A5.24,5.24,0,0,1,148.87,33a7.85,7.85,0,0,1-.48-2.76,6.58,6.58,0,0,1,1-3.65,6,6,0,0,1,2.72-2.22q-3.59-1.47-3.59-5.75a7.74,7.74,0,0,1,.49-2.8,5.65,5.65,0,0,1,1.53-2.21,7.24,7.24,0,0,1,2.65-1.44,12.94,12.94,0,0,1,3.88-.51Z"/><path class="cls-1" d="M189.41,11.62a10,10,0,0,1,3.7.62,7.34,7.34,0,0,1,2.56,1.67,6.34,6.34,0,0,1,1.47,2.44,8.88,8.88,0,0,1,.48,2.91,9.43,9.43,0,0,1-.31,2.41,8,8,0,0,1-.94,2.23,7,7,0,0,1-4.16,3l5.94,10.22h-5l-5.83-9.88H180.7a.57.57,0,0,0-.64.65v9.23H175.6V27.06a4.3,4.3,0,0,1,.94-3.11,4.21,4.21,0,0,1,3.07-.94h9.95a4,4,0,0,0,1.62-.3,3.07,3.07,0,0,0,1.1-.8,3.29,3.29,0,0,0,.63-1.13,4.56,4.56,0,0,0,.2-1.33,3.51,3.51,0,0,0-.85-2.36,3.34,3.34,0,0,0-2.7-1h-14V11.62Z"/><path class="cls-2" d="M214.15,23.24V27.1H200.64V23.24Z"/><path class="cls-3" d="M218.84,11.62l7.65,20.58A1.85,1.85,0,0,0,227,33a1.33,1.33,0,0,0,.88.28,1.26,1.26,0,0,0,.94-.39,1.49,1.49,0,0,0,.38-1V16.73a5.75,5.75,0,0,1,1.4-4,5.47,5.47,0,0,1,4.24-1.53,5.59,5.59,0,0,1,3.93,1.26,8.29,8.29,0,0,1,2.12,3.47l6.21,16.3a1.39,1.39,0,0,0,1.4,1.06,1.2,1.2,0,0,0,.92-.39,1.52,1.52,0,0,0,.36-1V11.62h4.5V32a5.77,5.77,0,0,1-1.41,4.07,6.71,6.71,0,0,1-8.18.27,8.58,8.58,0,0,1-2.1-3.47l-6.2-16.3a1.94,1.94,0,0,0-.55-.8,1.35,1.35,0,0,0-.89-.3,1.18,1.18,0,0,0-.93.4,1.53,1.53,0,0,0-.36,1.08V32a5.77,5.77,0,0,1-1.41,4.07,6.71,6.71,0,0,1-8.18.27,8.58,8.58,0,0,1-2.1-3.47l-7.9-21.26Z"/><path class="cls-3" d="M261.37,37.16h-4.92l9-22.7a4.87,4.87,0,0,1,2-2.56,6.79,6.79,0,0,1,3.35-.73,6.68,6.68,0,0,1,3.31.73,4.73,4.73,0,0,1,2,2.56l8.63,22.7h-5L272,16.61a1.24,1.24,0,0,0-1.25-.87,1.31,1.31,0,0,0-1.28.87Z"/><path class="cls-3" d="M291.19,11.62V28.31a6.06,6.06,0,0,0,.24,1.72,3.21,3.21,0,0,0,.85,1.4,4.18,4.18,0,0,0,1.61.92,7.87,7.87,0,0,0,2.52.34h9.91v4.47H296.14a12.6,12.6,0,0,1-4.33-.66,7.65,7.65,0,0,1-2.93-1.84,6.94,6.94,0,0,1-1.65-2.78,11.64,11.64,0,0,1-.51-3.54V11.62Z"/><path class="cls-3" d="M315,11.62V22.44h2.46q1.63,0,2.67-.09a4.91,4.91,0,0,0,1.72-.44A3.36,3.36,0,0,0,323,21a12.17,12.17,0,0,0,1-1.69l3.9-7.64h4.8l-4,8a14.29,14.29,0,0,1-1.85,2.83,7,7,0,0,1-2.58,1.82,6.06,6.06,0,0,1,1.59.62,6.3,6.3,0,0,1,1.27,1,9.15,9.15,0,0,1,1.12,1.4,20.93,20.93,0,0,1,1.09,1.91l4.13,8h-5l-3.89-7.57a9.76,9.76,0,0,0-1-1.62,3.27,3.27,0,0,0-1.24-.95,6,6,0,0,0-1.9-.44c-.75-.06-1.74-.09-2.95-.09H315V37.16h-4.46V11.62Z"/><path class="cls-3" d="M357.7,11.62v4.47H344.91a4.18,4.18,0,0,0-3,.87,3.11,3.11,0,0,0-.91,2.34q0,3,3.9,3h12.56v4.05H344.84q-3.9,0-3.9,3.1a3,3,0,0,0,.94,2.36,4.28,4.28,0,0,0,2.92.85h12.94v4.47H344.8a12.54,12.54,0,0,1-3.88-.53,7.41,7.41,0,0,1-2.65-1.46A5.34,5.34,0,0,1,336.76,33a7.85,7.85,0,0,1-.47-2.76,6.58,6.58,0,0,1,.94-3.65A5.94,5.94,0,0,1,340,24.33q-3.6-1.47-3.6-5.75a7.74,7.74,0,0,1,.49-2.8,5.65,5.65,0,0,1,1.53-2.21A7.24,7.24,0,0,1,341,12.13a13,13,0,0,1,3.88-.51Z"/><path class="cls-4" d="M381.61,6.74a10.54,10.54,0,0,1,2.21,2.66c2.41,4.15,1.69,9.81,1.69,9.86h0a9.88,9.88,0,0,1-.3,2.41,8.28,8.28,0,0,1-.95,2.23,7,7,0,0,1-1.66,1.83,7.11,7.11,0,0,1-2.5,1.21L386,37.16h-5l-5.82-9.88H368.6a.58.58,0,0,0-.65.65v9.23h-4.46V27.06a4.3,4.3,0,0,1,.94-3.11A4.24,4.24,0,0,1,367.5,23h9.95a4.05,4.05,0,0,0,1.63-.3,3,3,0,0,0,1.09-.8,3.31,3.31,0,0,0,.63-1.13,10.23,10.23,0,0,0,.44-3.64,12.17,12.17,0,0,0-.38-2.77A7,7,0,0,0,379.23,11"/><path class="cls-5" d="M346.85,4.21c3.31,0,5.95,0,7.66,0,0,0,9.31-.09,13.51.85.51.12,1,.26,1,.26.61.17,1.06.34,1.39.46.14,0,1.84.68,2.6,1A27.61,27.61,0,0,1,379.23,11l2.39-4.19a11.58,11.58,0,0,0-1-.8l-.16-.11-.35-.23a39.56,39.56,0,0,0-5.62-2.95,29.71,29.71,0,0,0-4.72-1.45,37.2,37.2,0,0,0-6.36-.86C356.72,0,348.67.12,346.85.16"/><path class="cls-6" d="M346.85,4.28H1.67L0,.07H346.85Z"/></svg>